<mxfile host="app.diagrams.net" modified="2024-05-30T20:58:58.659Z" agent="Mozilla/5.0 (Windows NT 10.0; Win64; x64) AppleWebKit/537.36 (KHTML, like Gecko) Chrome/125.0.0.0 Safari/537.36" etag="yEucfei13B1vOXf5XALV" version="24.4.10" type="github">
  <diagram name="Page-1" id="2a216829-ef6e-dabb-86c1-c78162f3ba2b">
    <mxGraphModel dx="1290" dy="557" grid="1" gridSize="10" guides="1" tooltips="1" connect="1" arrows="1" fold="1" page="1" pageScale="1" pageWidth="850" pageHeight="1100" background="none" math="0" shadow="0">
      <root>
        <mxCell id="0" />
        <mxCell id="1" parent="0" />
        <mxCell id="ZdmHgabZ3lukVrNW_HJa-10" value="Creacion de proceso" style="swimlane;childLayout=stackLayout;resizeParent=1;resizeParentMax=0;horizontal=0;startSize=20;horizontalStack=0;html=1;" vertex="1" parent="1">
          <mxGeometry x="20" y="50" width="820" height="275" as="geometry" />
        </mxCell>
        <mxCell id="ZdmHgabZ3lukVrNW_HJa-11" value="Gestor" style="swimlane;startSize=20;horizontal=0;html=1;" vertex="1" parent="ZdmHgabZ3lukVrNW_HJa-10">
          <mxGeometry x="20" width="800" height="275" as="geometry">
            <mxRectangle x="20" width="700" height="30" as="alternateBounds" />
          </mxGeometry>
        </mxCell>
        <mxCell id="ZdmHgabZ3lukVrNW_HJa-34" value="" style="edgeStyle=orthogonalEdgeStyle;rounded=0;orthogonalLoop=1;jettySize=auto;html=1;entryX=0;entryY=0.5;entryDx=0;entryDy=0;" edge="1" parent="ZdmHgabZ3lukVrNW_HJa-11">
          <mxGeometry relative="1" as="geometry">
            <mxPoint x="80" y="130" as="sourcePoint" />
            <mxPoint x="120" y="130" as="targetPoint" />
            <Array as="points" />
          </mxGeometry>
        </mxCell>
        <mxCell id="ZdmHgabZ3lukVrNW_HJa-28" value="" style="edgeStyle=orthogonalEdgeStyle;rounded=0;orthogonalLoop=1;jettySize=auto;html=1;entryX=0;entryY=0.5;entryDx=0;entryDy=0;entryPerimeter=0;" edge="1" parent="ZdmHgabZ3lukVrNW_HJa-11" target="ZdmHgabZ3lukVrNW_HJa-39">
          <mxGeometry relative="1" as="geometry">
            <mxPoint x="470" y="130" as="sourcePoint" />
            <mxPoint x="510" y="130" as="targetPoint" />
          </mxGeometry>
        </mxCell>
        <mxCell id="ZdmHgabZ3lukVrNW_HJa-32" value="" style="edgeStyle=orthogonalEdgeStyle;rounded=0;orthogonalLoop=1;jettySize=auto;html=1;entryX=0;entryY=0.5;entryDx=0;entryDy=0;entryPerimeter=0;" edge="1" parent="ZdmHgabZ3lukVrNW_HJa-11" target="ZdmHgabZ3lukVrNW_HJa-43">
          <mxGeometry relative="1" as="geometry">
            <mxPoint x="670" y="130" as="sourcePoint" />
            <mxPoint x="710" y="130" as="targetPoint" />
          </mxGeometry>
        </mxCell>
        <mxCell id="ZdmHgabZ3lukVrNW_HJa-35" value="Se asignan los formatos a cada tarea especifica." style="points=[[0.25,0,0],[0.5,0,0],[0.75,0,0],[1,0.25,0],[1,0.5,0],[1,0.75,0],[0.75,1,0],[0.5,1,0],[0.25,1,0],[0,0.75,0],[0,0.5,0],[0,0.25,0]];shape=mxgraph.bpmn.task;whiteSpace=wrap;rectStyle=rounded;size=10;html=1;container=1;expand=0;collapsible=0;bpmnShapeType=call;taskMarker=user;" vertex="1" parent="ZdmHgabZ3lukVrNW_HJa-11">
          <mxGeometry x="300" y="90" width="170" height="80" as="geometry" />
        </mxCell>
        <mxCell id="ZdmHgabZ3lukVrNW_HJa-40" style="edgeStyle=orthogonalEdgeStyle;rounded=0;orthogonalLoop=1;jettySize=auto;html=1;exitX=1;exitY=0.5;exitDx=0;exitDy=0;exitPerimeter=0;" edge="1" parent="ZdmHgabZ3lukVrNW_HJa-11" source="ZdmHgabZ3lukVrNW_HJa-38">
          <mxGeometry relative="1" as="geometry">
            <mxPoint x="300" y="130" as="targetPoint" />
          </mxGeometry>
        </mxCell>
        <mxCell id="ZdmHgabZ3lukVrNW_HJa-38" value="Identificar tareas y asignar roles." style="points=[[0.25,0,0],[0.5,0,0],[0.75,0,0],[1,0.25,0],[1,0.5,0],[1,0.75,0],[0.75,1,0],[0.5,1,0],[0.25,1,0],[0,0.75,0],[0,0.5,0],[0,0.25,0]];shape=mxgraph.bpmn.task;whiteSpace=wrap;rectStyle=rounded;size=10;html=1;container=1;expand=0;collapsible=0;bpmnShapeType=call;taskMarker=user;" vertex="1" parent="ZdmHgabZ3lukVrNW_HJa-11">
          <mxGeometry x="120" y="90" width="120" height="80" as="geometry" />
        </mxCell>
        <mxCell id="ZdmHgabZ3lukVrNW_HJa-39" value="Se actualizan las funciones de cada rol segÃºn las tareas asignadas." style="points=[[0.25,0,0],[0.5,0,0],[0.75,0,0],[1,0.25,0],[1,0.5,0],[1,0.75,0],[0.75,1,0],[0.5,1,0],[0.25,1,0],[0,0.75,0],[0,0.5,0],[0,0.25,0]];shape=mxgraph.bpmn.task;whiteSpace=wrap;rectStyle=rounded;size=10;html=1;container=1;expand=0;collapsible=0;bpmnShapeType=call;taskMarker=user;" vertex="1" parent="ZdmHgabZ3lukVrNW_HJa-11">
          <mxGeometry x="530" y="90" width="140" height="80" as="geometry" />
        </mxCell>
        <mxCell id="ZdmHgabZ3lukVrNW_HJa-42" value="" style="points=[[0.145,0.145,0],[0.5,0,0],[0.855,0.145,0],[1,0.5,0],[0.855,0.855,0],[0.5,1,0],[0.145,0.855,0],[0,0.5,0]];shape=mxgraph.bpmn.event;html=1;verticalLabelPosition=bottom;labelBackgroundColor=#ffffff;verticalAlign=top;align=center;perimeter=ellipsePerimeter;outlineConnect=0;aspect=fixed;outline=standard;symbol=general;direction=south;" vertex="1" parent="ZdmHgabZ3lukVrNW_HJa-11">
          <mxGeometry x="30" y="105" width="50" height="50" as="geometry" />
        </mxCell>
        <mxCell id="ZdmHgabZ3lukVrNW_HJa-43" value="" style="points=[[0.145,0.145,0],[0.5,0,0],[0.855,0.145,0],[1,0.5,0],[0.855,0.855,0],[0.5,1,0],[0.145,0.855,0],[0,0.5,0]];shape=mxgraph.bpmn.event;html=1;verticalLabelPosition=bottom;labelBackgroundColor=#ffffff;verticalAlign=top;align=center;perimeter=ellipsePerimeter;outlineConnect=0;aspect=fixed;outline=end;symbol=terminate2;" vertex="1" parent="ZdmHgabZ3lukVrNW_HJa-11">
          <mxGeometry x="720" y="105" width="50" height="50" as="geometry" />
        </mxCell>
      </root>
    </mxGraphModel>
  </diagram>
</mxfile>
